/* XPM */
static char *_76b6917fbab4929fc7c27ec2b66aa008GRawPGdxsmZ8ida[] = {
/* columns rows colors chars-per-pixel */
"64 64 98 2 ",
"   c black",
".  c #010100",
"X  c #020101",
"o  c #030201",
"O  c #040301",
"+  c #050302",
"@  c #060402",
"#  c #070402",
"$  c #070503",
"%  c #080503",
"&  c #0A0604",
"*  c #0F0B05",
"=  c #100A06",
"-  c #100B06",
";  c #140C07",
":  c #150E07",
">  c #160F07",
",  c #190F09",
"<  c #1B1309",
"1  c #1E160A",
"2  c gray11",
"3  c #20160B",
"4  c #23160D",
"5  c #25170E",
"6  c #211A0B",
"7  c #231C0A",
"8  c #26180D",
"9  c #27190F",
"0  c #2D1C0F",
"q  c #2F1F10",
"w  c #301F11",
"e  c #311F12",
"r  c #322112",
"t  c #312610",
"y  c #312611",
"u  c #372512",
"i  c #382A15",
"p  c #3C2F14",
"a  c #3F3115",
"s  c gray15",
"d  c #313131",
"f  c #3F3F3F",
"g  c #402D15",
"h  c #472C1B",
"j  c #4B2F1C",
"k  c #473317",
"l  c #473219",
"z  c #483219",
"x  c #4C301A",
"c  c #493418",
"v  c #4B341A",
"b  c #50381C",
"n  c #573A1D",
"m  c #58391F",
"M  c #5E3F1F",
"N  c #563620",
"B  c #5A3820",
"V  c #5C3922",
"C  c #5F3D21",
"Z  c #603F21",
"A  c #643E22",
"S  c #654223",
"D  c #694224",
"F  c #684325",
"G  c #6B4324",
"H  c #6A4226",
"J  c #6F4526",
"K  c #704626",
"L  c #724A28",
"P  c #764C2A",
"I  c #774D2A",
"U  c #774C2B",
"Y  c #7A4B2E",
"T  c #784D2E",
"R  c #7D4D2E",
"E  c #7E502D",
"W  c #494949",
"Q  c gray34",
"!  c #626262",
"~  c #6C6C6C",
"^  c gray48",
"/  c #875331",
"(  c #885431",
")  c #885533",
"_  c #8A5633",
"`  c #8C5734",
"'  c #8F5935",
"]  c #8F5936",
"[  c #905C37",
"{  c #935B38",
"}  c #965E38",
"|  c #995F39",
" . c #9C613B",
".. c #9D623B",
"X. c #9C643C",
"o. c #A3693F",
"O. c #A4693F",
"+. c gray52",
/* pixels */
"                                                                                                                                ",
"                                                                                                                                ",
"                                                                                                                                ",
"                                                                                                                                ",
"                                                                                                                                ",
"                                                                                                                                ",
"                                                                                                                                ",
"                                                                                                                                ",
"                                                                                                                                ",
"                                                                                                                                ",
"                                                                                                                                ",
"                                                                                                                                ",
"                                                                                                                                ",
"                                                                                                                                ",
"                                                                                                                                ",
"                                                                                                                                ",
"                                                                                                                                ",
"                                                                                                                                ",
"                                                                                                                                ",
"                                                                                                                                ",
"                                                                                                                                ",
"                                                                                                                                ",
"                                                                                                                                ",
"                                                                                                                                ",
"                                                                                                                                ",
"                                                                                                                                ",
"                                                                                                                                ",
"                                                                                                                                ",
"                                                                                                                                ",
"                                                                                                                                ",
"                                                                                                                                ",
"                                                                                                                                ",
"                                                                                                                                ",
"                                                                                                                                ",
"                                                                                                                                ",
"                                                                                                                                ",
"                                                                                                                                ",
"                                                                                                                                ",
"                                                                                                                                ",
"                                                                                                                                ",
"                                                                                                                                ",
"                                                                                                                                ",
"                                                                                                                                ",
"                                                                                                                                ",
"                                                                                                                                ",
"                                            & 9 e -                               % 1 < * O                                     ",
"                                          9 T )  .T j 4 &                         > g v l t 3                                   ",
"                                      : N [ o.` o. .} ' C j , @                 O u k b b a v 6                                 ",
"                                  r V F  .o.O.` O.......I ' R H B e @         @ q n c b b a b p                                 ",
"                                  L ( I ..O.O.` O.......I { ` ( / I m 0 - > 8 x Z M c b b a b a                                 ",
"                                  I ` I ..O.O.` O.......I { ` ( ( E I J v A D J S M k b b a b a                                 ",
"                                  ~ ` I ..O.O.( O.......K { ` ( ( E I K v J K K S M v b b a f f                                 ",
"                                  ! ^ ^ ^ ~ O.( O.......K { ` ( ( E I K b J K K S M c f f f f d                                 ",
"                                  Q ~ ~ ~ ^ +.^ ~ ~ ~ ~ ~ ! ! ! ! ! Q Q Q Q Q W W W W f d d d                                   ",
"                                  W Q ! ~ ~ ^ ~ ! ! ! ! Q Q Q Q W W W W W W f f f f f d d d d i                                 ",
"                                    S W Q Q Q ! ! ! ! ! Q Q Q Q W W W W W W f f f f f i i i v b                                 ",
"                                    I I K K K K K J M C t M M b b b b b 7 b b b b i i b a b a b                                 ",
"                                    I ` I { O.( O.{ { ( S ( E E E E I K b K K S M a b b a b a                                   ",
"                                      I ` ` ..I { { { ( S I E E E E I M b K K S M a b b a b a                                   ",
"                                      ! ` I ` ` I { { ( S K E E E I K b b K K S b a b a b a                                     ",
"                                      ! ^ +.^ ' I ( ( ( K S I I I I K b M K S M a b a a k d                                     ",
"                                        ~ ~ ~ ^ ^ ^ ^ ~ ~ ~ ! ! Q Q Q W W W f f f d d s 2                                       ",
"                                          ~ ! ~ ~ ! ! ! Q Q Q Q W W W W f f f d d d s s                                         ",
"                                              W W W W W f f f f f d d d d s s s s s                                             "
};
